<svg width="353" height="283" viewBox="0 0 353 283" fill="none" xmlns="http://www.w3.org/2000/svg">
<rect width="353" height="283" rx="50" fill="#98BF79"/>
<rect x="4" y="6" width="344" height="272" rx="48" fill="white"/>
<rect x="9" y="10" width="335" height="263" rx="43" fill="#98BF79"/>
<rect x="68" y="60" width="221" height="165" rx="30" fill="white"/>
<rect y="102" width="353" height="75" fill="white"/>
<path d="M238.496 119.592H246.432L251.232 150.76L254.816 119.592H263.52L256.8 161H246.624L242.464 135.592L238.304 161H228.128L221.408 119.592H230.112L233.696 150.76L238.496 119.592ZM283.298 129.128C288.589 129.128 291.234 131.944 291.234 137.576V147.688H276.706V154.216C276.706 154.557 276.813 154.856 277.026 155.112C277.282 155.368 277.581 155.496 277.922 155.496H281.442C281.783 155.496 282.061 155.368 282.274 155.112C282.53 154.856 282.658 154.557 282.658 154.216V150.76H291.234V153.192C291.234 158.824 288.589 161.64 283.298 161.64H276.066C270.775 161.64 268.13 158.824 268.13 153.192V137.576C268.13 131.944 270.775 129.128 276.066 129.128H283.298ZM276.706 142.056H282.658V136.296C282.658 135.955 282.53 135.656 282.274 135.4C282.061 135.144 281.783 135.016 281.442 135.016H277.922C277.581 135.016 277.282 135.144 277.026 135.4C276.813 135.656 276.706 135.955 276.706 136.296V142.056ZM309.767 129.128H311.111C316.401 129.128 319.047 131.944 319.047 137.576V153.192C319.047 158.824 316.401 161.64 311.111 161.64H309.767C306.695 161.64 304.497 160.659 303.175 158.696V161H295.943V119.592H304.519V130.664C305.884 129.64 307.633 129.128 309.767 129.128ZM304.519 136.552V154.216C304.519 154.557 304.625 154.856 304.839 155.112C305.095 155.368 305.393 155.496 305.735 155.496H309.255C309.596 155.496 309.873 155.368 310.087 155.112C310.343 154.856 310.471 154.557 310.471 154.216V136.552C310.471 136.211 310.343 135.912 310.087 135.656C309.873 135.4 309.596 135.272 309.255 135.272H305.735C305.393 135.272 305.095 135.4 304.839 135.656C304.625 135.912 304.519 136.211 304.519 136.552ZM339.6 141.416C344.891 141.416 347.536 144.232 347.536 149.864V153.192C347.536 158.824 344.891 161.64 339.6 161.64H332.496C327.205 161.64 324.56 158.824 324.56 153.192V151.208H332.496V154.024C332.496 154.365 332.603 154.664 332.816 154.92C333.072 155.176 333.371 155.304 333.712 155.304H338.96C339.301 155.304 339.579 155.176 339.792 154.92C340.048 154.664 340.176 154.365 340.176 154.024V150.184C340.176 149.843 340.048 149.544 339.792 149.288C339.579 149.032 339.301 148.904 338.96 148.904H332.368C327.077 148.904 324.432 146.088 324.432 140.456V137.576C324.432 131.944 327.077 129.128 332.368 129.128H339.088C344.379 129.128 347.024 131.944 347.024 137.576V138.728H339.088V136.744C339.088 136.403 338.96 136.104 338.704 135.848C338.491 135.592 338.213 135.464 337.872 135.464H333.008C332.667 135.464 332.368 135.592 332.112 135.848C331.899 136.104 331.792 136.403 331.792 136.744V140.136C331.792 140.477 331.899 140.776 332.112 141.032C332.368 141.288 332.667 141.416 333.008 141.416H339.6Z" fill="#98BF79"/>
<path d="M39.79 124.75V161.02C39.79 168.94 36.07 172.9 28.63 172.9H16.66C9.22 172.9 5.5 168.94 5.5 161.02V124.75C5.5 116.83 9.22 112.87 16.66 112.87H28.63C36.07 112.87 39.79 116.83 39.79 124.75ZM27.19 162.46V123.22C27.19 122.74 27.01 122.32 26.65 121.96C26.35 121.6 25.96 121.42 25.48 121.42H19.81C19.33 121.42 18.91 121.6 18.55 121.96C18.25 122.32 18.1 122.74 18.1 123.22V162.46C18.1 162.94 18.25 163.36 18.55 163.72C18.91 164.08 19.33 164.26 19.81 164.26H25.48C25.96 164.26 26.35 164.08 26.65 163.72C27.01 163.36 27.19 162.94 27.19 162.46ZM61.6938 148.15V172H49.0938V113.77H71.5038C78.9438 113.77 82.6638 117.73 82.6638 125.65V132.4C82.6638 137.2 80.9538 140.26 77.5338 141.58C80.5338 142.66 82.0338 145.12 82.0338 148.96V172H69.4338V149.95C69.4338 148.75 68.8638 148.15 67.7237 148.15H61.6938ZM61.6938 122.32V139.33H68.3537C68.8338 139.33 69.2238 139.15 69.5238 138.79C69.8838 138.43 70.0638 138.01 70.0638 137.53V124.12C70.0638 123.64 69.8838 123.22 69.5238 122.86C69.2238 122.5 68.8338 122.32 68.3537 122.32H61.6938ZM103.354 113.77V172H90.7539V113.77H103.354ZM125.327 161.56H139.277V172H112.727V113.77H139.277V124.03H125.327V137.71H138.377V147.61H125.327V161.56ZM179.954 172H167.354V123.67C167.354 123.19 167.174 122.77 166.814 122.41C166.514 122.05 166.124 121.87 165.644 121.87H160.784C160.304 121.87 159.884 122.05 159.524 122.41C159.224 122.77 159.074 123.19 159.074 123.67V172H146.474V124.75C146.474 116.83 150.194 112.87 157.634 112.87H168.794C176.234 112.87 179.954 116.83 179.954 124.75V172ZM185.07 124.48V113.77H216.57V124.48H207.12V172H194.52V124.48H185.07Z" fill="#49494D"/>
<path d="M115.406 28.9375V46H113.145V28.9375H115.406ZM125.473 28.9375V46H123.246V28.9375H125.473ZM130.957 28.9375V30.7891H117.773V28.9375H130.957ZM148.066 41.6875C148.066 41.2891 148.004 40.9375 147.879 40.6328C147.762 40.3203 147.551 40.0391 147.246 39.7891C146.949 39.5391 146.535 39.3008 146.004 39.0742C145.48 38.8477 144.816 38.6172 144.012 38.3828C143.168 38.1328 142.406 37.8555 141.727 37.5508C141.047 37.2383 140.465 36.8828 139.98 36.4844C139.496 36.0859 139.125 35.6289 138.867 35.1133C138.609 34.5977 138.48 34.0078 138.48 33.3438C138.48 32.6797 138.617 32.0664 138.891 31.5039C139.164 30.9414 139.555 30.4531 140.062 30.0391C140.578 29.6172 141.191 29.2891 141.902 29.0547C142.613 28.8203 143.406 28.7031 144.281 28.7031C145.562 28.7031 146.648 28.9492 147.539 29.4414C148.438 29.9258 149.121 30.5625 149.59 31.3516C150.059 32.1328 150.293 32.9688 150.293 33.8594H148.043C148.043 33.2188 147.906 32.6523 147.633 32.1602C147.359 31.6602 146.945 31.2695 146.391 30.9883C145.836 30.6992 145.133 30.5547 144.281 30.5547C143.477 30.5547 142.812 30.6758 142.289 30.918C141.766 31.1602 141.375 31.4883 141.117 31.9023C140.867 32.3164 140.742 32.7891 140.742 33.3203C140.742 33.6797 140.816 34.0078 140.965 34.3047C141.121 34.5938 141.359 34.8633 141.68 35.1133C142.008 35.3633 142.422 35.5938 142.922 35.8047C143.43 36.0156 144.035 36.2188 144.738 36.4141C145.707 36.6875 146.543 36.9922 147.246 37.3281C147.949 37.6641 148.527 38.043 148.98 38.4648C149.441 38.8789 149.781 39.3516 150 39.8828C150.227 40.4062 150.34 41 150.34 41.6641C150.34 42.3594 150.199 42.9883 149.918 43.5508C149.637 44.1133 149.234 44.5938 148.711 44.9922C148.188 45.3906 147.559 45.6992 146.824 45.918C146.098 46.1289 145.285 46.2344 144.387 46.2344C143.598 46.2344 142.82 46.125 142.055 45.9062C141.297 45.6875 140.605 45.3594 139.98 44.9219C139.363 44.4844 138.867 43.9453 138.492 43.3047C138.125 42.6562 137.941 41.9062 137.941 41.0547H140.191C140.191 41.6406 140.305 42.1445 140.531 42.5664C140.758 42.9805 141.066 43.3242 141.457 43.5977C141.855 43.8711 142.305 44.0742 142.805 44.207C143.312 44.332 143.84 44.3945 144.387 44.3945C145.176 44.3945 145.844 44.2852 146.391 44.0664C146.938 43.8477 147.352 43.5352 147.633 43.1289C147.922 42.7227 148.066 42.2422 148.066 41.6875ZM164.062 44.1602V46H155.027V44.1602H164.062ZM155.484 28.9375V46H153.223V28.9375H155.484ZM162.867 36.2734V38.1133H155.027V36.2734H162.867ZM163.945 28.9375V30.7891H155.027V28.9375H163.945ZM166.863 28.9375H172.512C173.793 28.9375 174.875 29.1328 175.758 29.5234C176.648 29.9141 177.324 30.4922 177.785 31.2578C178.254 32.0156 178.488 32.9492 178.488 34.0586C178.488 34.8398 178.328 35.5547 178.008 36.2031C177.695 36.8438 177.242 37.3906 176.648 37.8438C176.062 38.2891 175.359 38.6211 174.539 38.8398L173.906 39.0859H168.598L168.574 37.2461H172.582C173.395 37.2461 174.07 37.1055 174.609 36.8242C175.148 36.5352 175.555 36.1484 175.828 35.6641C176.102 35.1797 176.238 34.6445 176.238 34.0586C176.238 33.4023 176.109 32.8281 175.852 32.3359C175.594 31.8438 175.188 31.4648 174.633 31.1992C174.086 30.9258 173.379 30.7891 172.512 30.7891H169.125V46H166.863V28.9375ZM176.836 46L172.688 38.2656L175.043 38.2539L179.25 45.8594V46H176.836ZM186.926 43.4102L191.953 28.9375H194.402L188.086 46H186.34L186.926 43.4102ZM182.227 28.9375L187.207 43.4102L187.828 46H186.082L179.777 28.9375H182.227ZM199.125 28.9375V46H196.863V28.9375H199.125ZM213.539 40.5742H215.789C215.672 41.6523 215.363 42.6172 214.863 43.4688C214.363 44.3203 213.656 44.9961 212.742 45.4961C211.828 45.9883 210.688 46.2344 209.32 46.2344C208.32 46.2344 207.41 46.0469 206.59 45.6719C205.777 45.2969 205.078 44.7656 204.492 44.0781C203.906 43.3828 203.453 42.5508 203.133 41.582C202.82 40.6055 202.664 39.5195 202.664 38.3242V36.625C202.664 35.4297 202.82 34.3477 203.133 33.3789C203.453 32.4023 203.91 31.5664 204.504 30.8711C205.105 30.1758 205.828 29.6406 206.672 29.2656C207.516 28.8906 208.465 28.7031 209.52 28.7031C210.809 28.7031 211.898 28.9453 212.789 29.4297C213.68 29.9141 214.371 30.5859 214.863 31.4453C215.363 32.2969 215.672 33.2852 215.789 34.4102H213.539C213.43 33.6133 213.227 32.9297 212.93 32.3594C212.633 31.7812 212.211 31.3359 211.664 31.0234C211.117 30.7109 210.402 30.5547 209.52 30.5547C208.762 30.5547 208.094 30.6992 207.516 30.9883C206.945 31.2773 206.465 31.6875 206.074 32.2188C205.691 32.75 205.402 33.3867 205.207 34.1289C205.012 34.8711 204.914 35.6953 204.914 36.6016V38.3242C204.914 39.1602 205 39.9453 205.172 40.6797C205.352 41.4141 205.621 42.0586 205.98 42.6133C206.34 43.168 206.797 43.6055 207.352 43.9258C207.906 44.2383 208.562 44.3945 209.32 44.3945C210.281 44.3945 211.047 44.2422 211.617 43.9375C212.188 43.6328 212.617 43.1953 212.906 42.625C213.203 42.0547 213.414 41.3711 213.539 40.5742ZM229.711 44.1602V46H220.676V44.1602H229.711ZM221.133 28.9375V46H218.871V28.9375H221.133ZM228.516 36.2734V38.1133H220.676V36.2734H228.516ZM229.594 28.9375V30.7891H220.676V28.9375H229.594ZM241.605 41.6875C241.605 41.2891 241.543 40.9375 241.418 40.6328C241.301 40.3203 241.09 40.0391 240.785 39.7891C240.488 39.5391 240.074 39.3008 239.543 39.0742C239.02 38.8477 238.355 38.6172 237.551 38.3828C236.707 38.1328 235.945 37.8555 235.266 37.5508C234.586 37.2383 234.004 36.8828 233.52 36.4844C233.035 36.0859 232.664 35.6289 232.406 35.1133C232.148 34.5977 232.02 34.0078 232.02 33.3438C232.02 32.6797 232.156 32.0664 232.43 31.5039C232.703 30.9414 233.094 30.4531 233.602 30.0391C234.117 29.6172 234.73 29.2891 235.441 29.0547C236.152 28.8203 236.945 28.7031 237.82 28.7031C239.102 28.7031 240.188 28.9492 241.078 29.4414C241.977 29.9258 242.66 30.5625 243.129 31.3516C243.598 32.1328 243.832 32.9688 243.832 33.8594H241.582C241.582 33.2188 241.445 32.6523 241.172 32.1602C240.898 31.6602 240.484 31.2695 239.93 30.9883C239.375 30.6992 238.672 30.5547 237.82 30.5547C237.016 30.5547 236.352 30.6758 235.828 30.918C235.305 31.1602 234.914 31.4883 234.656 31.9023C234.406 32.3164 234.281 32.7891 234.281 33.3203C234.281 33.6797 234.355 34.0078 234.504 34.3047C234.66 34.5938 234.898 34.8633 235.219 35.1133C235.547 35.3633 235.961 35.5938 236.461 35.8047C236.969 36.0156 237.574 36.2188 238.277 36.4141C239.246 36.6875 240.082 36.9922 240.785 37.3281C241.488 37.6641 242.066 38.043 242.52 38.4648C242.98 38.8789 243.32 39.3516 243.539 39.8828C243.766 40.4062 243.879 41 243.879 41.6641C243.879 42.3594 243.738 42.9883 243.457 43.5508C243.176 44.1133 242.773 44.5938 242.25 44.9922C241.727 45.3906 241.098 45.6992 240.363 45.918C239.637 46.1289 238.824 46.2344 237.926 46.2344C237.137 46.2344 236.359 46.125 235.594 45.9062C234.836 45.6875 234.145 45.3594 233.52 44.9219C232.902 44.4844 232.406 43.9453 232.031 43.3047C231.664 42.6562 231.48 41.9062 231.48 41.0547H233.73C233.73 41.6406 233.844 42.1445 234.07 42.5664C234.297 42.9805 234.605 43.3242 234.996 43.5977C235.395 43.8711 235.844 44.0742 236.344 44.207C236.852 44.332 237.379 44.3945 237.926 44.3945C238.715 44.3945 239.383 44.2852 239.93 44.0664C240.477 43.8477 240.891 43.5352 241.172 43.1289C241.461 42.7227 241.605 42.2422 241.605 41.6875Z" fill="white"/>
<path d="M100.598 257H97.0352L97.0586 255.16H100.598C101.816 255.16 102.832 254.906 103.645 254.398C104.457 253.883 105.066 253.164 105.473 252.242C105.887 251.312 106.094 250.227 106.094 248.984V247.941C106.094 246.965 105.977 246.098 105.742 245.34C105.508 244.574 105.164 243.93 104.711 243.406C104.258 242.875 103.703 242.473 103.047 242.199C102.398 241.926 101.652 241.789 100.809 241.789H96.9648V239.938H100.809C101.926 239.938 102.945 240.125 103.867 240.5C104.789 240.867 105.582 241.402 106.246 242.105C106.918 242.801 107.434 243.645 107.793 244.637C108.152 245.621 108.332 246.73 108.332 247.965V248.984C108.332 250.219 108.152 251.332 107.793 252.324C107.434 253.309 106.914 254.148 106.234 254.844C105.562 255.539 104.75 256.074 103.797 256.449C102.852 256.816 101.785 257 100.598 257ZM98.2422 239.938V257H95.9805V239.938H98.2422ZM122.57 255.16V257H113.535V255.16H122.57ZM113.992 239.938V257H111.73V239.938H113.992ZM121.375 247.273V249.113H113.535V247.273H121.375ZM122.453 239.938V241.789H113.535V239.938H122.453ZM130.879 254.41L135.906 239.938H138.355L132.039 257H130.293L130.879 254.41ZM126.18 239.938L131.16 254.41L131.781 257H130.035L123.73 239.938H126.18ZM151.492 255.16V257H142.457V255.16H151.492ZM142.914 239.938V257H140.652V239.938H142.914ZM150.297 247.273V249.113H142.457V247.273H150.297ZM151.375 239.938V241.789H142.457V239.938H151.375ZM164.641 255.16V257H156.109V255.16H164.641ZM156.555 239.938V257H154.293V239.938H156.555ZM179.594 247.93V249.008C179.594 250.289 179.434 251.438 179.113 252.453C178.793 253.469 178.332 254.332 177.73 255.043C177.129 255.754 176.406 256.297 175.562 256.672C174.727 257.047 173.789 257.234 172.75 257.234C171.742 257.234 170.816 257.047 169.973 256.672C169.137 256.297 168.41 255.754 167.793 255.043C167.184 254.332 166.711 253.469 166.375 252.453C166.039 251.438 165.871 250.289 165.871 249.008V247.93C165.871 246.648 166.035 245.504 166.363 244.496C166.699 243.48 167.172 242.617 167.781 241.906C168.391 241.188 169.113 240.641 169.949 240.266C170.793 239.891 171.719 239.703 172.727 239.703C173.766 239.703 174.703 239.891 175.539 240.266C176.383 240.641 177.105 241.188 177.707 241.906C178.316 242.617 178.781 243.48 179.102 244.496C179.43 245.504 179.594 246.648 179.594 247.93ZM177.355 249.008V247.906C177.355 246.891 177.25 245.992 177.039 245.211C176.836 244.43 176.535 243.773 176.137 243.242C175.738 242.711 175.25 242.309 174.672 242.035C174.102 241.762 173.453 241.625 172.727 241.625C172.023 241.625 171.387 241.762 170.816 242.035C170.254 242.309 169.77 242.711 169.363 243.242C168.965 243.773 168.656 244.43 168.438 245.211C168.219 245.992 168.109 246.891 168.109 247.906V249.008C168.109 250.031 168.219 250.938 168.438 251.727C168.656 252.508 168.969 253.168 169.375 253.707C169.789 254.238 170.277 254.641 170.84 254.914C171.41 255.188 172.047 255.324 172.75 255.324C173.484 255.324 174.137 255.188 174.707 254.914C175.277 254.641 175.758 254.238 176.148 253.707C176.547 253.168 176.848 252.508 177.051 251.727C177.254 250.938 177.355 250.031 177.355 249.008ZM189.273 250.309H184.715V248.469H189.273C190.156 248.469 190.871 248.328 191.418 248.047C191.965 247.766 192.363 247.375 192.613 246.875C192.871 246.375 193 245.805 193 245.164C193 244.578 192.871 244.027 192.613 243.512C192.363 242.996 191.965 242.582 191.418 242.27C190.871 241.949 190.156 241.789 189.273 241.789H185.242V257H182.98V239.938H189.273C190.562 239.938 191.652 240.16 192.543 240.605C193.434 241.051 194.109 241.668 194.57 242.457C195.031 243.238 195.262 244.133 195.262 245.141C195.262 246.234 195.031 247.168 194.57 247.941C194.109 248.715 193.434 249.305 192.543 249.711C191.652 250.109 190.562 250.309 189.273 250.309ZM198.836 239.938H201.027L206.617 253.848L212.195 239.938H214.398L207.461 257H205.75L198.836 239.938ZM198.121 239.938H200.055L200.371 250.344V257H198.121V239.938ZM213.168 239.938H215.102V257H212.852V250.344L213.168 239.938ZM229.914 255.16V257H220.879V255.16H229.914ZM221.336 239.938V257H219.074V239.938H221.336ZM228.719 247.273V249.113H220.879V247.273H228.719ZM229.797 239.938V241.789H220.879V239.938H229.797ZM245.84 239.938V257H243.566L234.977 243.84V257H232.715V239.938H234.977L243.602 253.133V239.938H245.84ZM255.801 239.938V257H253.574V239.938H255.801ZM261.285 239.938V241.789H248.102V239.938H261.285Z" fill="white"/>
</svg>
